<svg width="32" height="32" viewBox="0 0 32 32" fill="none" xmlns="http://www.w3.org/2000/svg">
  <rect width="32" height="32" rx="6" fill="#0A0A0A"/>
  <path d="M16 4C13.5 4 12 6 12 8.5C12 11 13.5 13 16 13C18.5 13 20 11 20 8.5C20 6 18.5 4 16 4Z" fill="#FF6B35"/>
  <path d="M16 11C14.5 11 13.5 12.5 13.5 14.5C13.5 16.5 14.5 18 16 18C17.5 18 18.5 16.5 18.5 14.5C18.5 12.5 17.5 11 16 11Z" fill="#F7931E"/>
  <path d="M16 16C15 16 14.5 17 14.5 18.5C14.5 20 15 21 16 21C17 21 17.5 20 17.5 18.5C17.5 17 17 16 16 16Z" fill="#FF4500"/>
  <ellipse cx="16" cy="26" rx="6" ry="2" fill="#FFD700" opacity="0.6"/>
</svg>
